<svg width="28" height="23" viewBox="0 0 28 23" fill="none" xmlns="http://www.w3.org/2000/svg">
<path d="M27.0604 3.06239L25.0976 3.06229V1.03055C25.0976 0.565398 24.7573 0.170194 24.2972 0.101373C24.2169 0.0893053 22.3048 -0.188431 20.0023 0.23053C17.4355 0.697573 15.3884 1.84934 14 3.59052C12.6115 1.84934 10.5644 0.697573 7.9976 0.23053C5.69501 -0.188337 3.78291 0.0893053 3.70268 0.101373C3.24262 0.170288 2.90228 0.565492 2.90228 1.03055V3.06229H0.939552C0.420753 3.06229 0 3.48304 0 4.00194V21.7074C0 22.0116 0.147259 22.297 0.395298 22.4733C0.643338 22.6496 0.96133 22.6948 1.24859 22.5947C1.31911 22.5703 8.3599 20.1674 13.61 22.5622C13.8578 22.6752 14.1422 22.6752 14.39 22.5622C19.6254 20.1742 26.6813 22.5705 26.7514 22.5947C26.8521 22.6298 26.9564 22.647 27.0603 22.647C27.2529 22.647 27.4435 22.5878 27.6047 22.4734C27.8527 22.2971 28 22.0117 28 21.7075V4.00203C27.9999 3.48314 27.5792 3.06239 27.0604 3.06239ZM1.8792 20.4502V4.94149H2.90228V17.4543C2.90228 17.7274 3.02173 17.9866 3.22829 18.1651C3.43484 18.3435 3.70956 18.4236 3.97957 18.3837C4.03142 18.3762 8.11318 17.8158 11.0953 19.8619C7.42186 19.2337 3.74529 19.9603 1.8792 20.4502ZM13.0604 19.0145C11.7469 17.8278 10.0361 17.0253 7.9976 16.6544C7.01657 16.4759 6.10643 16.4238 5.37862 16.4238C5.16254 16.4238 4.96249 16.4284 4.78157 16.4357V1.89337H4.78148C6.58733 1.81191 10.9803 2.00499 13.0604 5.53119V19.0145ZM14.9395 5.53128C17.0122 2.02017 21.412 1.81832 23.2184 1.89572V16.4357C22.4281 16.4038 21.2745 16.4229 20.0023 16.6544C17.9638 17.0253 16.253 17.8277 14.9395 19.0145V5.53128ZM16.9015 19.8624C19.884 17.8151 23.9679 18.3761 24.0188 18.3836C24.2895 18.4242 24.564 18.3447 24.7712 18.1663C24.9785 17.9877 25.0976 17.7279 25.0976 17.4543V4.94159H26.1207V20.4502C24.254 19.9601 20.576 19.2332 16.9015 19.8624Z" fill="white"/>
</svg>
