<svg width="22" height="27" viewBox="0 0 22 27" fill="none" xmlns="http://www.w3.org/2000/svg">
<path d="M19.127 3.2168H16.7012V2.37305C16.7012 1.9362 16.347 1.58203 15.9102 1.58203H13.4016C13.0751 0.661237 12.1953 0 11.1641 0C10.1328 0 9.25303 0.661237 8.92655 1.58203H6.36524C5.92839 1.58203 5.57422 1.9362 5.57422 2.37305V3.2168H3.20117C1.89267 3.2168 0.828125 4.28135 0.828125 5.58985V24.627C0.828125 25.9355 1.89267 27 3.20117 27H19.127C20.4355 27 21.5 25.9355 21.5 24.627V5.58985C21.5 4.28135 20.4355 3.2168 19.127 3.2168ZM7.15626 3.16407H9.58204C10.0189 3.16407 10.3731 2.8099 10.3731 2.37305C10.3731 1.93688 10.7279 1.58203 11.1641 1.58203C11.6002 1.58203 11.9551 1.93688 11.9551 2.37305C11.9551 2.8099 12.3093 3.16407 12.7461 3.16407H15.1192V4.00782C15.1192 4.44398 14.7643 4.79883 14.3281 4.79883H7.94727C7.51111 4.79883 7.15626 4.44398 7.15626 4.00782V3.16407ZM19.918 24.627C19.918 25.0631 19.5631 25.418 19.127 25.418H3.20117C2.76501 25.418 2.41016 25.0631 2.41016 24.627V5.58985C2.41016 5.15368 2.76501 4.79883 3.20117 4.79883H5.71028C6.03681 5.71952 6.91605 6.38087 7.94727 6.38087H14.3281C15.3594 6.38087 16.2386 5.71952 16.5651 4.79883H19.127C19.5631 4.79883 19.918 5.15368 19.918 5.58985V24.627Z" fill="#7992BC"/>
<path d="M10.1459 13.7364C9.83961 13.4249 9.33874 13.4207 9.02729 13.7271L6.36979 16.3411L5.34247 15.3138C5.03361 15.0048 4.53273 15.0048 4.22382 15.3138C3.9149 15.6227 3.9149 16.1235 4.22382 16.4324L5.8059 18.0144C5.96025 18.1688 6.1627 18.2461 6.3652 18.2461C6.56549 18.2461 6.76593 18.1705 6.91986 18.019L10.1367 14.855C10.4481 14.5486 10.4522 14.0478 10.1459 13.7364Z" fill="#7992BC"/>
<path d="M10.1459 19.2735C9.83961 18.9621 9.33874 18.9579 9.02729 19.2643L6.36979 21.8782L5.34247 20.8509C5.03361 20.542 4.53273 20.542 4.22382 20.8509C3.9149 21.1598 3.9149 21.6606 4.22382 21.9695L5.8059 23.5516C5.96025 23.7059 6.1627 23.7832 6.3652 23.7832C6.56549 23.7832 6.76593 23.7076 6.91986 23.5562L10.1367 20.3921C10.4481 20.0858 10.4522 19.5849 10.1459 19.2735Z" fill="#7992BC"/>
<path d="M8.50659 11.3587L7.48386 10.3359L8.50654 9.31327C8.81545 9.00435 8.81545 8.50353 8.50654 8.19461C8.19767 7.88569 7.6968 7.88569 7.38788 8.19461L6.3652 9.21729L5.34247 8.19461C5.03361 7.88569 4.53273 7.88569 4.22382 8.19461C3.9149 8.50353 3.9149 9.00435 4.22382 9.31327L5.24655 10.3359L4.22387 11.3586C3.91495 11.6675 3.91495 12.1684 4.22387 12.4773C4.53273 12.7862 5.03361 12.7862 5.34252 12.4773L6.3652 11.4546L7.38793 12.4773C7.6968 12.7862 8.19767 12.7862 8.50659 12.4773C8.81551 12.1684 8.81551 11.6676 8.50659 11.3587Z" fill="#7992BC"/>
<path d="M17.5449 9.54492H12.7461C12.3092 9.54492 11.9551 9.89909 11.9551 10.3359C11.9551 10.7728 12.3092 11.127 12.7461 11.127H17.5449C17.9818 11.127 18.3359 10.7728 18.3359 10.3359C18.3359 9.89909 17.9818 9.54492 17.5449 9.54492Z" fill="#7992BC"/>
<path d="M17.5449 15.0821H12.7461C12.3092 15.0821 11.9551 15.4362 11.9551 15.8731C11.9551 16.3099 12.3092 16.6641 12.7461 16.6641H17.5449C17.9818 16.6641 18.3359 16.3099 18.3359 15.8731C18.3359 15.4362 17.9818 15.0821 17.5449 15.0821Z" fill="#7992BC"/>
<path d="M17.5449 20.6192H12.7461C12.3092 20.6192 11.9551 20.9733 11.9551 21.4102C11.9551 21.847 12.3092 22.2012 12.7461 22.2012H17.5449C17.9818 22.2012 18.3359 21.847 18.3359 21.4102C18.3359 20.9733 17.9818 20.6192 17.5449 20.6192Z" fill="#7992BC"/>
</svg>
