<svg width="19" height="25" viewBox="0 0 19 25" fill="none" xmlns="http://www.w3.org/2000/svg">
<path d="M17.5942 0H3.1C1.39062 0 0 1.39072 0 3.1001V21.8999C0 23.6093 1.39067 25 3.1001 25H17.5942C17.9011 25 18.1499 24.7513 18.1499 24.4444C18.1499 24.4326 18.1488 24.4211 18.1481 24.4095C18.1488 24.3979 18.1499 24.3864 18.1499 24.3746V5.64458V0.555615C18.1498 0.24873 17.901 0 17.5942 0ZM2.54443 23.8093C1.71738 23.5681 1.11123 22.8038 1.11123 21.9V5.47578C1.51484 5.81421 2.00561 6.05142 2.54443 6.14937V23.8093ZM3.1 5.08892C2.00337 5.08892 1.11118 4.19668 1.11118 3.1001C1.11118 2.00352 2.00342 1.11128 3.1 1.11128H15.2186C14.7668 1.65 14.4941 2.3437 14.4941 3.1001C14.4941 3.85649 14.7668 4.5502 15.2186 5.08892H13.9829H10.874H3.1ZM13.4271 6.2002V9.46006L12.7637 8.96601C12.5667 8.81929 12.2967 8.81934 12.0997 8.96626L11.4295 9.46597V6.2002H13.4271ZM17.0386 23.8887H3.65562V6.2002H10.3183V10.5734C10.3183 10.7836 10.4369 10.9758 10.6248 11.07C10.7036 11.1096 10.7889 11.129 10.8739 11.129C10.9915 11.129 11.1083 11.0917 11.2062 11.0188L12.4321 10.1045L13.651 11.0121C13.8195 11.1376 14.0445 11.1573 14.2322 11.063C14.42 10.9687 14.5385 10.7766 14.5385 10.5665V6.20015H17.0386V23.8887ZM17.0386 5.00942C16.2115 4.76831 15.6053 4.00391 15.6053 3.10005C15.6053 2.19619 16.2115 1.43188 17.0385 1.19077V5.00942H17.0386Z" fill="white"/>
<path d="M13.0726 13.3035H7.62153C7.31465 13.3035 7.06592 13.5523 7.06592 13.8591C7.06592 14.1661 7.31475 14.4148 7.62153 14.4148H13.0726C13.3794 14.4148 13.6282 14.166 13.6282 13.8591C13.6282 13.5523 13.3794 13.3035 13.0726 13.3035Z" fill="white"/>
<path d="M14.6253 16.7854H6.0688C5.76191 16.7854 5.51318 17.0341 5.51318 17.341C5.51318 17.6479 5.76191 17.8966 6.0688 17.8966H14.6253C14.9322 17.8966 15.181 17.6479 15.181 17.341C15.181 17.0341 14.9322 16.7854 14.6253 16.7854Z" fill="white"/>
</svg>
