<svg width="15" height="19" viewBox="0 0 15 19" fill="none" xmlns="http://www.w3.org/2000/svg">
<path d="M4.88324 17.286C5.3275 18.2943 6.33292 19 7.49995 19C8.66698 19 9.67236 18.2943 10.1167 17.286H4.88324Z" fill="#2C569A"/>
<path d="M7.49982 1.81526C8.26995 1.81526 9.00941 1.95168 9.69564 2.20143V2.11657C9.69564 0.949486 8.74987 0 7.58739 0H7.41267C6.25015 0 5.30438 0.949486 5.30438 2.11657V2.20035C5.99024 1.95135 6.72948 1.81526 7.49982 1.81526Z" fill="#2C569A"/>
<path d="M14.43 16.1709H0.570022C0.307809 16.1709 0.0676269 15.9933 0.0130888 15.7358C-0.040894 15.4809 0.0748468 15.2292 0.309661 15.1203C0.365384 15.084 0.784805 14.7896 1.20471 13.8988C1.97591 12.2629 2.13778 9.95854 2.13778 8.31344C2.13778 5.34518 4.5432 2.93039 7.49981 2.93039C10.4494 2.93039 12.8504 5.33354 12.8618 8.29207C12.8621 8.29917 12.8622 8.3063 12.8622 8.31344C12.8622 9.95854 13.0241 12.2629 13.7953 13.8988C14.2152 14.7896 14.6346 15.0841 14.6903 15.1203C14.9251 15.2292 15.0409 15.4808 14.9869 15.7358C14.9324 15.9933 14.6922 16.1709 14.43 16.1709ZM14.6965 15.1243H14.6969H14.6965Z" fill="#2C569A"/>
</svg>
