<svg width="26" height="24" viewBox="0 0 26 24" fill="none" xmlns="http://www.w3.org/2000/svg">
<path d="M24.8261 10.6627L22.693 8.71909V2.27422C22.693 1.86415 22.3606 1.53166 21.9505 1.53166H16.8158C16.4058 1.53166 16.0733 1.8641 16.0733 2.27422V2.6872L13.4972 0.339867C12.9999 -0.113305 12.25 -0.113256 11.753 0.339817L0.424018 10.6628C0.0257359 11.0257 -0.105891 11.585 0.0887134 12.0875C0.283367 12.59 0.757301 12.9146 1.29619 12.9146H3.10557V23.2574C3.10557 23.6675 3.43802 24 3.84813 24H10.0578C10.4678 24 10.8003 23.6675 10.8003 23.2574V16.9776H14.4498V23.2574C14.4498 23.6675 14.7823 24 15.1924 24H21.4018C21.8118 24 22.1443 23.6676 22.1443 23.2574V12.9147H23.9541C24.4929 12.9147 24.9669 12.59 25.1615 12.0875C25.3561 11.585 25.2245 11.0257 24.8261 10.6627ZM21.4018 11.4295C20.9917 11.4295 20.6592 11.762 20.6592 12.1721V22.5149H15.935V16.235C15.935 15.8249 15.6025 15.4925 15.1924 15.4925H10.0578C9.64769 15.4925 9.3152 15.8249 9.3152 16.235V22.5149H4.59065V12.1721C4.59065 11.762 4.2582 11.4295 3.84808 11.4295H1.78748L12.6251 1.55434L16.3158 4.9173C16.5332 5.11536 16.847 5.1664 17.1159 5.0477C17.3849 4.92885 17.5585 4.66244 17.5585 4.36841V3.01678H21.208V9.04704C21.208 9.256 21.296 9.45519 21.4504 9.59594L23.4627 11.4295H21.4018Z" fill="white"/>
</svg>
