<svg width="94" height="94" viewBox="0 0 94 94" fill="none" xmlns="http://www.w3.org/2000/svg">
<path d="M47 31.2109C55.6187 31.2109 62.6055 24.2241 62.6055 15.6055C62.6055 6.98681 55.6187 0 47 0C38.3813 0 31.3945 6.98681 31.3945 15.6055C31.3945 24.2241 38.3813 31.2109 47 31.2109Z" fill="#4591F5"/>
<path d="M58.4671 33.325C55.1629 35.4707 51.2247 36.7187 47 36.7187C42.7753 36.7187 38.8371 35.4707 35.5329 33.325C31.8803 34.7209 28.4937 36.7803 25.5491 39.4233L47 47.4674L68.4509 39.4233C65.5062 36.7803 62.1197 34.7207 58.4671 33.325Z" fill="#4591F5"/>
<path d="M80.0469 56.9141H78.2109C76.69 56.9141 75.457 58.1471 75.457 59.668V67.0117C75.457 68.5326 76.69 69.7656 78.2109 69.7656H80.0469C83.5957 69.7656 86.4727 66.8887 86.4727 63.3398C86.4727 59.791 83.5957 56.9141 80.0469 56.9141Z" fill="#4591F5"/>
<path d="M16.0564 43.0116C15.3139 43.5262 14.8711 44.3719 14.8711 45.2751V51.4063H15.7891C20.3446 51.4063 24.0508 55.1125 24.0508 59.668V67.0117C24.0508 71.5672 20.3446 75.2734 15.7891 75.2734H14.8711V81.0759C14.8711 82.2239 15.5833 83.2515 16.658 83.6545L44.2461 94V52.3169L18.592 42.6966C17.7462 42.3791 16.7986 42.4968 16.0564 43.0116Z" fill="#4591F5"/>
<path d="M69.9492 67.0117V59.668C69.9492 55.1125 73.6554 51.4063 78.2109 51.4063H79.1289V45.2751C79.1289 44.3719 78.6861 43.5262 77.9436 43.0116C77.2012 42.4968 76.2535 42.3791 75.408 42.6966L49.7539 52.3169V94L77.342 83.6545C78.4167 83.2515 79.1289 82.2239 79.1289 81.0759V75.2734H78.2109C73.6554 75.2734 69.9492 71.5672 69.9492 67.0117Z" fill="#4591F5"/>
<path d="M18.543 67.0117V59.668C18.543 58.1471 17.31 56.9141 15.7891 56.9141H13.9531C10.4043 56.9141 7.52734 59.791 7.52734 63.3398C7.52734 66.8887 10.4043 69.7656 13.9531 69.7656H15.7891C17.31 69.7656 18.543 68.5326 18.543 67.0117Z" fill="#4591F5"/>
</svg>
